<svg xmlns="http://www.w3.org/2000/svg" width="512" height="512" viewBox="0 0 512 512" role="img" aria-label="Vibe Plant icon">
  <defs>
    <linearGradient id="bg" x1="0" y1="0" x2="1" y2="1">
      <stop offset="0%" stop-color="#11304a"/>
      <stop offset="100%" stop-color="#0c2236"/>
    </linearGradient>
    <linearGradient id="leaf" x1="0" y1="0" x2="1" y2="1">
      <stop offset="0%" stop-color="#49d39d"/>
      <stop offset="100%" stop-color="#2ba980"/>
    </linearGradient>
  </defs>
  <rect x="20" y="20" width="472" height="472" rx="112" fill="url(#bg)"/>
  <path d="M256 394c-12 0-20-9-20-20V223c0-12 8-20 20-20s20 8 20 20v151c0 11-8 20-20 20z" fill="#8bd2c4"/>
  <path d="M252 272c-63 0-113-49-113-113 63 0 113 50 113 113z" fill="url(#leaf)"/>
  <path d="M260 272c63 0 113-49 113-113-63 0-113 50-113 113z" fill="url(#leaf)"/>
  <rect x="146" y="354" width="220" height="28" rx="14" fill="#2f4f6e"/>
</svg>
